<?xml version="1.0" encoding="utf-8"?>
<!-- Generator: Adobe Illustrator 16.0.0, SVG Export Plug-In . SVG Version: 6.00 Build 0)  -->
<!DOCTYPE svg PUBLIC "-//W3C//DTD SVG 1.1//EN" "http://www.w3.org/Graphics/SVG/1.1/DTD/svg11.dtd">
<svg version="1.1" id="Layer_1" xmlns="http://www.w3.org/2000/svg" xmlns:xlink="http://www.w3.org/1999/xlink" x="0px" y="0px"
	 width="229.597px" height="133.688px" viewBox="13.695 6.859 229.597 133.688"
	 enable-background="new 13.695 6.859 229.597 133.688" xml:space="preserve">
<g>
	<path fill="#FFFFFF" d="M134.968,87.977h-7.321l-2.204-21.707l-6.273,18.023h-8.197l-6.944-17.943l-1.625,21.626h-7.207
		c0.326-3.957,1.269-12.575,2.805-25.687l0.139-1.192c0.416-3.603,2.098-5.21,5.459-5.21c3.543,0,4.857,1.528,6.073,5.559
		c0.97,3.209,5.541,16.317,5.541,16.317s4.234-12.941,5.225-16.257c1.367-4.567,2.397-5.619,6.807-5.619
		c2.683,0,4.336,0.86,4.877,5.244C132.487,64.09,134.428,81.459,134.968,87.977"/>
	<path fill="#FFFFFF" d="M236.294,87.973l-2.07-5.506h-13.988l-1.941,5.506h-6.765c1.134-3.855,3.456-10.861,5.375-16.661
		c1.413-4.283,2.634-7.982,3.171-9.759c1.463-4.846,3.383-5.663,7.135-5.663c3.89,0,5.371,0.79,7.061,5.726
		c1.396,4.084,9.021,26.356,9.021,26.356 M222.255,76.745h10.109l-4.918-14.718L222.255,76.745z"/>
	<path fill="#FFFFFF" d="M212.015,87.972h-7.977l-10.797-13.157l-0.029-5.35l10.477-13.575h8.352L199.03,72.165l12.653,15.807
		 M193.271,87.965h-7.047V55.899h1.421l4.533-0.009h1.097l0.008,13.768L193.289,72l-0.018,2.366V87.965z"/>
	<polyline fill="#FFFFFF" points="146.63,87.965 139.58,87.965 139.58,55.899 140.869,55.899 145.455,55.891 146.63,55.893 	"/>
	<line fill="none" x1="159.677" y1="85.737" x2="159.677" y2="85.741"/>
	<line fill="none" x1="159.677" y1="85.737" x2="159.677" y2="85.741"/>
	<line fill="none" x1="159.677" y1="85.737" x2="159.677" y2="85.741"/>
	<line fill="none" x1="159.677" y1="85.737" x2="159.677" y2="85.741"/>
	<path fill="#FFFFFF" d="M175.906,87.977c-2.421,0-3.787-1.766-5.402-4.051c-0.973-1.367-8.828-12.715-8.828-12.715l-2.579-3.729
		l0.019,5.527l0.016,3.16l0.029,11.801h-7.043L152.1,60.534c0-2.821,1.756-4.643,4.472-4.643c2.514,0,3.17,1.007,4.684,3.131
		l11.781,16.613v-19.75h7.022v28.222C180.058,86.788,178.779,87.977,175.906,87.977"/>
	<path fill="#FFFFFF" d="M85.709,40.829c-0.465,0.898-1.837,0.74-1.999-0.159c-1.997-11.116-14.763-22.151-33.104-20.487
		c-19.827,1.802-27.52,22.938-22.444,34.92c6.173,14.573,23.769,20.511,26.263,34.948c2.237,12.927-6.444,25.888-22.41,24.498
		c-10.553-0.918-17.517-8.168-18.264-11.043c-0.188-0.731,0.115-1.006,0.723-0.717c2.933,1.402,10.563,7.414,20.253,5.596
		c12.608-2.362,18.143-16.206,12.214-24.034c-7.05-9.304-28.388-18.564-30.862-33.095C13.19,34.289,22.515,10.395,52.062,8.975
		C79.049,7.675,91.782,29.151,85.709,40.829"/>
	<path fill="#FFFFFF" d="M61.782,97.264c3.416,4.104,5.863,19.801-0.349,27.963c-5.847,7.682-17.116,10.182-27.666,10.467
		c-1.16,0.033-1.311-0.631-0.268-0.986c7.807-2.639,14.788-6.416,21.193-15.061C58.358,114.704,61.08,102.888,61.782,97.264"/>
	<path fill="#FFFFFF" d="M70.582,98.538c4.596,1.982,11.556,11.039,9.587,24.762c-1.378,9.604-4.465,13.019-7.879,16.697
		c-1.044,1.121-1.296,0.377-0.838-0.848c1.756-4.672,2.397-10.463,2.283-19.389C73.602,109.715,71.653,102.25,70.582,98.538"/>
	<path fill="#FFFFFF" d="M79.474,95.999c-0.353,5.269,2.093,8.84,7.673,12.867c4.886,3.522,13.547,8.42,13.781,15.146
		c0.034,0.959,0.744,1.125,1.18,0.087c2.565-6.108,1.341-14.276-5.354-19.054C88.921,99.456,84.293,100.674,79.474,95.999"/>
	<path fill="#FFFFFF" d="M65.597,54.241c0,3.188-1.646,5.775-3.677,5.775c-2.031,0-3.678-2.587-3.678-5.775
		c0-3.194,1.647-5.783,3.678-5.783C63.951,48.458,65.597,51.046,65.597,54.241"/>
	<path fill="#FFFFFF" d="M78.062,54.241c0,3.188-1.646,5.775-3.677,5.775c-2.03,0-3.678-2.587-3.678-5.775
		c0-3.194,1.648-5.783,3.678-5.783C76.416,48.458,78.062,51.046,78.062,54.241"/>
	<path fill="#FFFFFF" d="M38.248,33.345c0.057-1.462,1.289-2.605,2.753-2.551c1.464,0.058,2.606,1.291,2.551,2.754
		c-0.056,1.464-1.287,2.607-2.754,2.552C39.334,36.042,38.191,34.812,38.248,33.345"/>
	<path fill="#FFFFFF" d="M41.05,39.766c0.05-1.222,1.075-2.176,2.297-2.128c1.22,0.048,2.17,1.075,2.124,2.296
		c-0.047,1.222-1.074,2.171-2.296,2.126C41.957,42.013,41.003,40.985,41.05,39.766"/>
	<path fill="#FFFFFF" d="M33.402,39.02c0.063-1.648,1.449-2.932,3.098-2.871c1.646,0.062,2.929,1.45,2.868,3.097
		c-0.065,1.649-1.451,2.933-3.099,2.871C34.623,42.052,33.336,40.666,33.402,39.02"/>
</g>
</svg>
