<?xml version="1.0" encoding="utf-8"?>
<!-- Generator: Adobe Illustrator 16.0.0, SVG Export Plug-In . SVG Version: 6.00 Build 0)  -->
<!DOCTYPE svg PUBLIC "-//W3C//DTD SVG 1.1//EN" "http://www.w3.org/Graphics/SVG/1.1/DTD/svg11.dtd">
<svg version="1.1" id="Layer_1" xmlns="http://www.w3.org/2000/svg" xmlns:xlink="http://www.w3.org/1999/xlink" x="0px" y="0px"
	 width="144px" height="54px" viewBox="0 0 144 54" enable-background="new 0 0 144 54" xml:space="preserve">
<g>
	<g>
		<path fill-rule="evenodd" clip-rule="evenodd" fill="#AA3186" d="M121.777,14.948h-7.141c0,0-1.871,19.279-4.941,23.615
			c-3.264-4.17-5.492-23.615-5.492-23.615h-7.139l12.201-14.055L121.777,14.948z"/>
		<path fill-rule="evenodd" clip-rule="evenodd" fill="#AA3186" d="M97.598,18.394c0,0,0,0-3.279,7.539
			c4.447,1.627,11.365,11.336,14.828,19.221c3.684-7.484,9.619-17.094,14.828-18.672c-1.209-2.588-3.295-7.139-3.295-7.139
			l17.023,6.041l-6.59,17.572l-3.844-7.688c0,0-3.338,0.625-7.504,5.791c-3.537,4.385-5.545,9.037-8.373,12.125
			c-0.521,0.568-3.459,0.656-4.127,0.043c-1.566-1.438-2.572-4.061-3.611-5.877c-3.229-5.635-9.748-11.75-12.723-12.457
			c-3.807,7.291-3.666,7.166-3.666,7.166l-6.334-18L97.598,18.394z"/>
	</g>
</g>
<g>
	<g>
		<path fill-rule="evenodd" clip-rule="evenodd" fill="#FFFFFF" d="M47.071,14.948h-7.14c0,0-1.872,19.279-4.941,23.615
			c-3.264-4.17-5.493-23.615-5.493-23.615h-7.139L34.559,0.894L47.071,14.948z"/>
		<path fill-rule="evenodd" clip-rule="evenodd" fill="#FFFFFF" d="M22.892,18.394c0,0,0,0-3.28,7.539
			c4.447,1.627,11.366,11.336,14.828,19.221c3.684-7.484,9.619-17.094,14.828-18.672c-1.209-2.588-3.295-7.139-3.295-7.139
			l17.023,6.041l-6.589,17.572l-3.844-7.688c0,0-3.338,0.625-7.505,5.791c-3.536,4.385-5.545,9.037-8.373,12.125
			c-0.521,0.568-3.458,0.656-4.127,0.043c-1.565-1.438-2.571-4.061-3.61-5.877c-3.229-5.635-9.748-11.75-12.723-12.457
			c-3.808,7.291-3.667,7.166-3.667,7.166l-6.333-18L22.892,18.394z"/>
	</g>
</g>
</svg>
