<?xml version="1.0" encoding="utf-8"?>
<!-- Generator: Adobe Illustrator 16.0.0, SVG Export Plug-In . SVG Version: 6.00 Build 0)  -->
<!DOCTYPE svg PUBLIC "-//W3C//DTD SVG 1.1//EN" "http://www.w3.org/Graphics/SVG/1.1/DTD/svg11.dtd">
<svg version="1.1" id="Layer_1" xmlns="http://www.w3.org/2000/svg" xmlns:xlink="http://www.w3.org/1999/xlink" x="0px" y="0px"
	 width="134.667px" height="51.833px" viewBox="0 0 134.667 51.833" enable-background="new 0 0 134.667 51.833"
	 xml:space="preserve">
<g>
	<path fill="#BB9A2F" d="M30.633,48.09l-1.438,1.883l-5.073,0.121l0.041-22.387c0.021,0,0.041,0.006,0.063,0.006
		c1.007,0.002,1.825-0.814,1.828-1.822c0.001-1.008-0.814-1.826-1.822-1.828s-1.825,0.814-1.828,1.822
		c0,0.016,0.004,0.029,0.006,0.047h-0.006l-0.044,24.16l-4.255-0.008l0.045-24.16h-0.006c0.002-0.016,0.006-0.031,0.006-0.047
		c0.002-1.008-0.814-1.826-1.821-1.828c-1.008-0.002-1.825,0.814-1.828,1.82c-0.001,1.008,0.813,1.826,1.821,1.828
		c0.021,0,0.042-0.004,0.062-0.004L16.344,50.08l-4.95-0.01c0,0-1.54-0.756-1.538-2.016l0.012-6.293
		c0.008-4.654-3.656-9.959-4.969-11.967c-1.891-2.893-2.987-6.352-2.98-10.066C1.936,9.582,10.177,1.371,20.322,1.391
		C30.469,1.41,38.68,9.65,38.66,19.797c-0.007,3.65-1.08,7.051-2.923,9.908c-1.333,2.064-5.101,7.818-5.108,12.098L30.633,48.09z"/>
</g>
<g>
	<path fill="#FFFFFF" d="M125.129,48.09l-1.438,1.883l-5.074,0.121l0.041-22.387c0.021,0,0.041,0.006,0.064,0.006
		c1.006,0.002,1.824-0.814,1.828-1.822c0-1.008-0.814-1.826-1.822-1.828s-1.826,0.814-1.828,1.822c0,0.016,0.004,0.029,0.006,0.047
		h-0.006l-0.045,24.16l-4.254-0.008l0.045-24.16h-0.006c0.002-0.016,0.006-0.031,0.006-0.047c0.002-1.008-0.814-1.826-1.822-1.828
		s-1.824,0.814-1.828,1.82c0,1.008,0.814,1.826,1.822,1.828c0.021,0,0.041-0.004,0.062-0.004L110.84,50.08l-4.951-0.01
		c0,0-1.539-0.756-1.537-2.016l0.012-6.293c0.008-4.654-3.656-9.959-4.969-11.967c-1.891-2.893-2.988-6.352-2.98-10.066
		c0.018-10.146,8.258-18.357,18.404-18.338s18.357,8.26,18.338,18.406c-0.008,3.65-1.08,7.051-2.924,9.908
		c-1.332,2.064-5.1,7.818-5.107,12.098L125.129,48.09z"/>
</g>
</svg>
