<?xml version="1.0" encoding="utf-8"?>
<!-- Generator: Adobe Illustrator 16.0.0, SVG Export Plug-In . SVG Version: 6.00 Build 0)  -->
<!DOCTYPE svg PUBLIC "-//W3C//DTD SVG 1.1//EN" "http://www.w3.org/Graphics/SVG/1.1/DTD/svg11.dtd">
<svg version="1.1" id="Layer_1" xmlns="http://www.w3.org/2000/svg" xmlns:xlink="http://www.w3.org/1999/xlink" x="0px" y="0px"
	 width="324px" height="90px" viewBox="0 0 324 90" enable-background="new 0 0 324 90" xml:space="preserve">
<g>
	<g>
		<path fill="#FFFFFF" d="M76.142,53.062h-4.376l-1.317-12.973l-3.75,10.771H61.8l-4.15-10.725l-0.973,12.926h-4.307
			c0.196-2.365,0.76-7.516,1.677-15.352l0.083-0.713c0.25-2.154,1.255-3.113,3.263-3.113c2.118,0,2.903,0.912,3.63,3.32
			c0.58,1.92,3.312,9.754,3.312,9.754s2.529-7.734,3.123-9.717c0.816-2.73,1.432-3.357,4.068-3.357c1.602,0,2.591,0.512,2.914,3.135
			C74.658,38.786,75.819,49.167,76.142,53.062L76.142,53.062z"/>
		<path fill="#FFFFFF" d="M136.702,53.06l-1.237-3.291h-8.361l-1.16,3.291H121.9c0.679-2.305,2.065-6.492,3.213-9.959
			c0.844-2.559,1.574-4.77,1.895-5.832c0.875-2.895,2.021-3.385,4.266-3.385c2.324,0,3.209,0.473,4.219,3.422
			c0.834,2.441,5.392,15.754,5.392,15.754H136.702z M128.31,46.347h6.043l-2.939-8.795L128.31,46.347z"/>
		<path fill="#FFFFFF" d="M122.19,53.06h-4.767l-6.453-7.865l-0.018-3.195l6.262-8.115h4.99l-7.775,9.729l7.563,9.447H122.19z
			 M110.987,53.056h-4.21V33.89h0.848l2.709-0.006h0.656l0.004,8.23l0.004,1.398l-0.011,1.414V53.056L110.987,53.056z"/>
		<polygon fill="#FFFFFF" points="83.111,53.056 78.898,53.056 78.898,33.89 79.667,33.89 82.409,33.884 83.111,33.886 
			83.111,53.056 		"/>
		<polygon fill="#231F20" points="90.909,51.724 90.909,51.726 90.909,51.726 		"/>
		<polygon fill="#231F20" points="90.909,51.724 90.909,51.726 90.909,51.726 		"/>
		<polygon fill="#231F20" points="90.909,51.724 90.909,51.726 90.909,51.726 		"/>
		<polygon fill="#231F20" points="90.909,51.724 90.909,51.726 90.909,51.726 		"/>
		<path fill="#FFFFFF" d="M100.609,53.062c-1.447,0-2.264-1.055-3.23-2.42c-0.58-0.818-5.274-7.6-5.274-7.6l-1.542-2.229l0.01,3.303
			l0.01,1.889l0.017,7.053H86.39l-0.01-16.398c0-1.686,1.049-2.775,2.672-2.775c1.502,0,1.895,0.604,2.799,1.873l7.041,9.93v-3.033
			v-1.84v-6.932h4.198v8.225v8.643C103.09,52.349,102.326,53.062,100.609,53.062L100.609,53.062z"/>
	</g>
	<g>
		<path fill="#FFFFFF" d="M46.701,24.882c-0.277,0.537-1.098,0.441-1.195-0.096c-1.192-6.643-8.822-13.238-19.785-12.244
			c-11.85,1.076-16.447,13.711-13.414,20.871c3.689,8.709,14.207,12.26,15.697,20.887c1.336,7.727-3.852,15.473-13.395,14.643
			c-6.308-0.547-10.471-4.881-10.916-6.6c-0.113-0.438,0.068-0.602,0.432-0.428c1.754,0.838,6.313,4.43,12.105,3.344
			c7.535-1.412,10.844-9.688,7.301-14.365C19.316,45.333,6.563,39.798,5.084,31.114C3.357,20.974,8.931,6.692,26.59,5.843
			C42.72,5.067,50.33,17.903,46.701,24.882z"/>
		<path fill="#FFFFFF" d="M32.4,58.612c2.04,2.453,3.503,11.836-0.209,16.713c-3.495,4.592-10.23,6.084-16.535,6.256
			c-0.694,0.02-0.784-0.377-0.16-0.59c4.666-1.576,8.838-3.834,12.666-9C30.352,69.034,31.98,61.974,32.4,58.612z"/>
		<path fill="#FFFFFF" d="M37.658,59.374c2.748,1.184,6.908,6.596,5.73,14.799c-0.822,5.74-2.668,7.779-4.709,9.979
			c-0.624,0.672-0.774,0.227-0.501-0.506c1.05-2.791,1.433-6.252,1.364-11.588C39.464,66.056,38.299,61.593,37.658,59.374z"/>
		<path fill="#FFFFFF" d="M42.974,57.856c-0.211,3.146,1.25,5.283,4.585,7.689c2.921,2.105,8.098,5.033,8.237,9.053
			c0.021,0.574,0.443,0.672,0.705,0.053c1.533-3.652,0.801-8.533-3.2-11.389C48.619,59.923,45.854,60.651,42.974,57.856z"/>
		<ellipse fill="#FFFFFF" cx="32.481" cy="32.897" rx="2.198" ry="3.453"/>
		<ellipse fill="#FFFFFF" cx="39.932" cy="32.897" rx="2.198" ry="3.453"/>
		<path fill="#FFFFFF" d="M18.333,20.409c0.033-0.873,0.771-1.557,1.646-1.525c0.874,0.035,1.558,0.773,1.524,1.646
			c-0.033,0.877-0.77,1.559-1.646,1.525C18.983,22.021,18.3,21.286,18.333,20.409z"/>
		<circle fill="#FFFFFF" cx="21.329" cy="24.297" r="1.322"/>
		<circle fill="#FFFFFF" cx="17.22" cy="23.869" r="1.784"/>
	</g>
</g>
<g>
	<g>
		<path fill="#010101" d="M256.133,53.062h-4.375l-1.318-12.973l-3.75,10.771h-4.898l-4.15-10.725l-0.973,12.926h-4.307
			c0.197-2.365,0.76-7.516,1.678-15.352l0.082-0.713c0.25-2.154,1.256-3.113,3.264-3.113c2.117,0,2.902,0.912,3.629,3.32
			c0.58,1.92,3.312,9.754,3.312,9.754s2.529-7.734,3.123-9.717c0.816-2.73,1.432-3.357,4.068-3.357c1.602,0,2.592,0.512,2.914,3.135
			C254.648,38.786,255.811,49.167,256.133,53.062L256.133,53.062z"/>
		<path fill="#010101" d="M316.693,53.06l-1.238-3.291h-8.361l-1.16,3.291h-4.043c0.68-2.305,2.066-6.492,3.213-9.959
			c0.844-2.559,1.574-4.77,1.895-5.832c0.875-2.895,2.021-3.385,4.266-3.385c2.324,0,3.209,0.473,4.219,3.422
			c0.834,2.441,5.393,15.754,5.393,15.754H316.693z M308.301,46.347h6.043l-2.939-8.795L308.301,46.347z"/>
		<path fill="#010101" d="M302.182,53.06h-4.768l-6.453-7.865l-0.018-3.195l6.262-8.115h4.99l-7.775,9.729l7.564,9.447H302.182z
			 M290.979,53.056h-4.211V33.89h0.848l2.709-0.006h0.656l0.004,8.23l0.004,1.398l-0.01,1.414V53.056L290.979,53.056z"/>
		<polygon fill="#010101" points="263.102,53.056 258.889,53.056 258.889,33.89 259.658,33.89 262.4,33.884 263.102,33.886 
			263.102,53.056 		"/>
		<polygon fill="#010101" points="270.9,51.724 270.9,51.726 270.9,51.726 		"/>
		<polygon fill="#010101" points="270.9,51.724 270.9,51.726 270.9,51.726 		"/>
		<polygon fill="#010101" points="270.9,51.724 270.9,51.726 270.9,51.726 		"/>
		<polygon fill="#010101" points="270.9,51.724 270.9,51.726 270.9,51.726 		"/>
		<path fill="#010101" d="M280.6,53.062c-1.447,0-2.264-1.055-3.23-2.42c-0.58-0.818-5.273-7.6-5.273-7.6l-1.543-2.229l0.01,3.303
			l0.01,1.889l0.018,7.053h-4.209l-0.01-16.398c0-1.686,1.049-2.775,2.672-2.775c1.502,0,1.895,0.604,2.799,1.873l7.041,9.93v-3.033
			v-1.84v-6.932h4.199v8.225v8.643C283.082,52.349,282.316,53.062,280.6,53.062L280.6,53.062z"/>
	</g>
	<g>
		<path fill="#AA3186" d="M226.691,24.882c-0.277,0.537-1.098,0.441-1.195-0.096c-1.191-6.643-8.822-13.238-19.785-12.244
			c-11.85,1.076-16.447,13.711-13.414,20.871c3.689,8.709,14.207,12.26,15.697,20.887c1.336,7.727-3.852,15.473-13.395,14.643
			c-6.307-0.547-10.471-4.881-10.916-6.6c-0.113-0.438,0.068-0.602,0.432-0.428c1.754,0.838,6.314,4.43,12.105,3.344
			c7.535-1.412,10.844-9.688,7.301-14.365c-4.215-5.561-16.967-11.096-18.445-19.779c-1.729-10.141,3.846-24.422,21.506-25.271
			C222.711,5.067,230.32,17.903,226.691,24.882z"/>
		<path fill="#AA3186" d="M212.391,58.612c2.041,2.453,3.504,11.836-0.209,16.713c-3.494,4.592-10.23,6.084-16.535,6.256
			c-0.693,0.02-0.783-0.377-0.16-0.59c4.666-1.576,8.838-3.834,12.666-9C210.344,69.034,211.971,61.974,212.391,58.612z"/>
		<path fill="#AA3186" d="M217.648,59.374c2.748,1.184,6.908,6.596,5.73,14.799c-0.822,5.74-2.668,7.779-4.709,9.979
			c-0.623,0.672-0.773,0.227-0.5-0.506c1.049-2.791,1.432-6.252,1.363-11.588C219.455,66.056,218.291,61.593,217.648,59.374z"/>
		<path fill="#AA3186" d="M222.965,57.856c-0.211,3.146,1.25,5.283,4.586,7.689c2.92,2.105,8.098,5.033,8.236,9.053
			c0.021,0.574,0.443,0.672,0.705,0.053c1.533-3.652,0.801-8.533-3.199-11.389C228.609,59.923,225.846,60.651,222.965,57.856z"/>
		<ellipse fill="#AA3186" cx="212.472" cy="32.897" rx="2.198" ry="3.453"/>
		<ellipse fill="#AA3186" cx="219.923" cy="32.897" rx="2.198" ry="3.453"/>
		<path fill="#AA3186" d="M198.324,20.409c0.033-0.873,0.771-1.557,1.646-1.525c0.873,0.035,1.557,0.773,1.523,1.646
			c-0.033,0.877-0.77,1.559-1.646,1.525C198.975,22.021,198.291,21.286,198.324,20.409z"/>
		<circle fill="#AA3186" cx="201.32" cy="24.297" r="1.321"/>
		<circle fill="#AA3186" cx="197.211" cy="23.869" r="1.784"/>
	</g>
</g>
</svg>
